<svg xmlns="http://www.w3.org/2000/svg" viewBox="5.35 5.33 110 110"><circle style="fill:#000" cy="60.331" cx="60.347" r="55"/><path style="fill:#fc0;stroke-width:.174849" d="M87.936 44.779c-2.191-2.525-6.99-5.284-5.576-8.98 1.76-2.972 2.266-9.412 6.728-8.889 4.241 1.535 8.486 3.752 11.508 7.154.684 4.39-5.163 6.238-8 8.521-1.498.677-2.96 2.261-4.66 2.194z"/><path style="fill:#fff;stroke-width:.174849" d="M55.131 98.82C43.92 98.04 32.16 94.12 25 85c-2.029-1.452-5.095-8.258-.385-4.69 13.568 8.548 30.444 10.607 46.112 8.46 8.515-1.263 16.884-3.98 24.183-8.6 3.38-.427-1.454 4.605-2.419 5.772-7.711 8.944-19.73 13.149-31.344 12.893-2.004.032-4.012.091-6.016-.016zm.162-18.092C37.515 78.784 6.034 70.645 15.79 46.388c2.06-3.465 5.404-6.087 8.941-7.903 2.975 2.068-2.709 6.31-3.216 9.306-1.478 5.536 3.162 10.388 7.527 13.035 11.574 6.703 25.48 8.092 38.597 6.92 9.75-1.12 20.114-3.545 27.388-10.543 3.16-3 4.12-7.79 2.41-11.789 1.603-5.095 6.65.346 6.93 3.509.496 8.845-.958 18.87-8.892 22.956-12.163 6.665-26.38 9.541-40.182 8.85z"/><path style="fill:green;stroke-width:.174849" d="M54.959 64.422c-9.077-.934-18.79-2.538-26.01-8.559-3.57-2.584-4.357-7.572-1.137-10.77 1.528-3.956 4.409-6.717 8.445-8.08 3.269-2.184 6.019-5.873 10.418-5.488 4.214.57 7.435-2.469 11.344-3.115 4.085-.752 7.779 2.117 11.921 1.616 3.435-.078 9.1 1.162 9.152 5.25-1.183 2.758-2.597 6.147 1.401 7.171 2.083 2.526 4.565 5.61 5.68 8.08 2.41-1.057 8.568-5.96 8.037-.308-.66 4.87-5.58 7.704-9.627 9.653-9.282 4.148-19.59 4.869-29.624 4.55z"/></svg>