<svg xmlns="http://www.w3.org/2000/svg" viewBox="0 0 77.41 114.64"><g data-name="Layer 2"><path d="M10.39 89.27v-2.11H8.46v2.11h-1v-5.08h1v2.13h1.94v-2.13h1v5.08zm4.61 0h-.78l-.07-.27a2.15 2.15 0 01-1.14.32c-.7 0-1-.46-1-1.09s.34-1 1.11-1H14v-.38c0-.41-.12-.55-.73-.55a5.55 5.55 0 00-1.06.11l-.12-.7a5.18 5.18 0 011.31-.17c1.2 0 1.55.41 1.55 1.32zm-1-1.38h-.71c-.31 0-.4.08-.4.36s.09.37.38.37a1.55 1.55 0 00.72-.19zm3 1.46a4.67 4.67 0 01-1.32-.21l.13-.7a4.44 4.44 0 001.14.16c.42 0 .49-.09.49-.37s0-.34-.67-.48c-.93-.22-1-.44-1-1.15s.34-1.06 1.43-1.06a5.22 5.22 0 011.14.13l-.09.73a7 7 0 00-1.05-.11c-.42 0-.49.09-.49.32s0 .32.54.44c1.07.27 1.17.41 1.17 1.16s-.26 1.14-1.42 1.14zm4.38-.08v-2.56c0-.2-.09-.29-.31-.29a2.72 2.72 0 00-1 .31v2.54h-1v-5.15l1 .14v1.62a3.48 3.48 0 011.4-.35c.63 0 .86.43.86 1.08v2.66zm1.76-4.18v-.9h1v.9zm0 4.18v-3.66h1v3.67zm1.72-3.63c0-.92.56-1.45 1.86-1.45a6.14 6.14 0 011.42.17l-.11.82a8 8 0 00-1.28-.18c-.68 0-.9.23-.9.76v1.93c0 .53.22.76.9.76a8 8 0 001.25-.09l.11.82a6.14 6.14 0 01-1.42.17c-1.3 0-1.86-.53-1.86-1.45zm5.39 3.71c-1.31 0-1.66-.69-1.66-1.44V87c0-.75.35-1.44 1.66-1.44s1.66.69 1.66 1.44v.93c0 .72-.35 1.42-1.66 1.42zm0-3c-.51 0-.71.22-.71.63v1c0 .41.2.63.71.63s.71-.22.71-.63v-1c.04-.45-.2-.67-.71-.67zm4.35.06a7.58 7.58 0 00-1 .53v2.36h-1v-3.69h.81l.06.41a4.35 4.35 0 011-.48zm3.82 1.68a1.13 1.13 0 01-1.26 1.29 5.48 5.48 0 01-1-.11v1.5l-1 .14v-5.3h.76l.09.31a2.06 2.06 0 011.21-.38c.77 0 1.18.44 1.18 1.27zm-2.28.41a4.41 4.41 0 00.85.1c.34 0 .48-.16.48-.49v-1.33c0-.3-.12-.47-.47-.47a1.38 1.38 0 00-.85.33zM21.73 93.36h4.12l-6.26 21h-5.86l-6.26-21h4.12l5.07 17.47zM37.31 114.32h-3.15l-.28-1a8.38 8.38 0 01-4.56 1.35c-2.8 0-4-1.92-4-4.56 0-3.12 1.35-4.31 4.47-4.31h3.68v-1.61c0-1.7-.47-2.3-2.93-2.3a21.42 21.42 0 00-4.25.47l-.47-2.93a20 20 0 015.26-.72c4.82 0 6.23 1.7 6.23 5.54zm-3.84-5.79h-2.84c-1.26 0-1.61.35-1.61 1.51s.35 1.54 1.54 1.54a6 6 0 002.9-.79zM43.35 99v10.7c0 .82.35 1.23 1.23 1.23a10.59 10.59 0 004-1.29V99h3.84v15.33h-2.93l-.38-1.33a15.35 15.35 0 01-6.11 1.64c-2.55 0-3.46-1.79-3.46-4.53V99zM54.46 114.32V92.73l3.84-.53v22.13zM69.76 114a10.64 10.64 0 01-3.37.6c-2.8 0-4.22-1.32-4.22-4.06V102h-2.3v-3h2.3v-3.81l3.83-.54V99h3.93l-.24 3H66v8a1.21 1.21 0 001.38 1.35 7.39 7.39 0 001.92-.31zM0 0l38.57 77.41L77.41 0zm43.16 15.54h4.49V20h-4.49zm-8.94 18h-4.49V29h4.49zm0-6.73h-4.49v-4.54h4.49zm0-6.73h-4.49v-4.54h4.49zM41 40.22h-4.54v-4.49H41zm0-6.73h-4.54V29H41zm0-6.73h-4.54v-4.49H41zM41 20h-4.54v-4.46H41zm2.21 2.24h4.49v4.49h-4.54zm0 11.22V29h4.49v4.49z"/></g></svg>