<svg xmlns="http://www.w3.org/2000/svg" fill="#41BDF5" viewBox="0 0 24 24"><path d="M11.992 1.395a.704.704 0 00-.498.211L.162 13.098a.563.563 0 00-.162.396.567.567 0 00.566.566H2.67v8.074a.47.47 0 00.471.471h7.947v-3.684l-3.051-3.055a2.42 2.42 0 01-.947.193c-1.338 0-2.422-1.087-2.422-2.426a2.423 2.423 0 114.844 0 2.42 2.42 0 01-.191.947l1.768 1.768v-5.375a2.426 2.426 0 01.908-4.674 2.425 2.425 0 01.908 4.674v5.375l1.766-1.768a2.421 2.421 0 01-.191-.947 2.423 2.423 0 114.846 0 2.424 2.424 0 01-2.422 2.426 2.42 2.42 0 01-.947-.193l-3.051 3.055v3.684h7.947a.47.47 0 00.471-.471V14.06h2.111a.569.569 0 00.396-.162.57.57 0 00.008-.801l-2.516-2.572V6.471a.47.47 0 00-.471-.473h-1.965a.47.47 0 00-.471.473v1.103L12.5 1.604a.706.706 0 00-.508-.209zm.004 6.361a.97.97 0 000 1.94.968.968 0 00.969-.969.97.97 0 00-.969-.971zm-4.906 4.91a.968.968 0 00-.969.969.97.97 0 00.969.971.97.97 0 00.969-.971.968.968 0 00-.969-.969zm9.813 0a.97.97 0 100 1.94.97.97 0 00.969-.971.968.968 0 00-.969-.969z"/></svg>