<svg xmlns="http://www.w3.org/2000/svg" fill="#41BDF5" viewBox="0 0 24 24" xmlns:v="https://vecta.io/nano"><path d="M11.992 1.395a.704.704 0 0 0-.498.211L.162 13.098a.563.563 0 0 0-.162.396.567.567 0 0 0 .566.566H2.67v8.074a.47.47 0 0 0 .471.471h7.947v-3.684l-3.051-3.055a2.42 2.42 0 0 1-.947.193c-1.338 0-2.422-1.087-2.422-2.426s1.084-2.424 2.422-2.424 2.422 1.085 2.422 2.424a2.42 2.42 0 0 1-.191.947l1.768 1.768v-5.375c-.888-.36-1.516-1.231-1.516-2.248 0-1.339 1.086-2.426 2.424-2.426s2.422 1.087 2.422 2.426c0 1.017-.626 1.888-1.514 2.248v5.375l1.766-1.768a2.421 2.421 0 0 1-.191-.947c0-1.339 1.086-2.424 2.424-2.424s2.422 1.085 2.422 2.424-1.084 2.426-2.422 2.426a2.42 2.42 0 0 1-.947-.193l-3.051 3.055v3.684h7.947a.47.47 0 0 0 .471-.471V14.06h2.111a.569.569 0 0 0 .396-.162.57.57 0 0 0 .008-.801l-2.516-2.572V6.471a.47.47 0 0 0-.471-.473h-1.965a.47.47 0 0 0-.471.473v1.103L12.5 1.604a.706.706 0 0 0-.508-.209zm.004 6.361a.97.97 0 0 0 0 1.94.968.968 0 0 0 .969-.969.97.97 0 0 0-.969-.971zm-4.906 4.91a.968.968 0 0 0-.969.969.97.97 0 0 0 .969.971.97.97 0 0 0 .969-.971.968.968 0 0 0-.969-.969zm9.813 0a.97.97 0 1 0 0 1.94.97.97 0 0 0 .969-.971.968.968 0 0 0-.969-.969z"/></svg>