<svg xmlns="http://www.w3.org/2000/svg" viewBox="0 0 454.28 454.28" xmlns:v="https://vecta.io/nano"><path d="M114.22 342.32l-1.73 11.26H80.63v-11.26zm259.44 0v11.26H341.8l-1.73-11.26zM55.54 382.84h29.6v9.57h-29.6zm313.61 0h29.6v9.57h-29.6z" fill="#3b75a8"/><path d="M286.97 42.35H167.32C169.55 23.59 185.54 9 204.9 9h44.49c19.35 0 35.35 14.59 37.58 33.35zm-23.64-12.18v-9h-72.37v9h72.37z" fill="#4489d3"/><path d="M112.06 252.08c4.63 0 8.39 3.77 8.39 8.39 0 4.63-3.76 8.4-8.39 8.4s-8.39-3.77-8.39-8.4c0-4.62 3.76-8.39 8.39-8.39z" fill="#6bce95"/><path d="M69.82 252.08c4.63 0 8.39 3.77 8.39 8.39 0 4.63-3.76 8.4-8.39 8.4-4.62 0-8.39-3.77-8.39-8.4a8.41 8.41 0 0 1 8.39-8.39z" fill="#f97946"/><path d="M414.77 228.71v145.13h-69.85l-1.74-11.26h39.48v-29.26H71.63v29.26h39.47l-1.73 11.26H39.51V228.71h375.26zm-285.32 31.76c0-9.58-7.8-17.39-17.39-17.39s-17.39 7.81-17.39 17.39c0 9.59 7.8 17.4 17.39 17.4s17.39-7.81 17.39-17.4zm-42.24 0c0-9.58-7.8-17.39-17.39-17.39s-17.39 7.81-17.39 17.39c0 9.59 7.8 17.4 17.39 17.4s17.39-7.81 17.39-17.4z" fill="#4489d3"/><path d="M414.77 161.14v58.57H39.51v-58.57h75.46v23.94H91v9h272.28v-9h-23.96v-23.94z" fill="#3b75a8"/><path d="M330.96 342.32l15.84 102.96H107.49l15.84-102.96h207.63zm-8.79 87.82v-9H132.12v9h190.05zm-3-24.9v-9H135.12v9h184.05zm-2.82-23.38v-9H137.94v9h178.41zm-2.65-21.99v-9H140.59v9H313.7zM123.97 51.35h206.35v133.73H123.97z" fill="#ffcc73"/><path d="M423.77 152.14v230.7h-16.02v18.57h-47.6v-18.57H346.3l10.99 71.44H97l10.99-71.44H94.14v18.57h-47.6v-18.57H30.51v-230.7h84.46V42.35h43.29C160.53 18.62 180.58 0 204.9 0h44.49c24.32 0 44.36 18.62 46.64 42.35h43.29v109.79h84.45zm-9 221.7V228.71H39.51v145.13h69.86l1.73-11.26H71.63v-29.26h311.03v29.26h-39.48l1.74 11.26h69.85zm0-154.13v-58.57h-75.45v23.94h23.96v9H91v-9h23.97v-23.94H39.51v58.57h375.26zm-16.02 172.7v-9.57h-29.6v9.57h29.6zm-25.09-38.83v-11.26h-33.59l1.73 11.26h31.86zm-26.86 91.7l-15.84-102.96H123.33l-15.84 102.96H346.8zm-16.48-260.2V51.35H123.97v133.73h206.35zm-163-142.73h119.65C284.74 23.59 268.74 9 249.39 9H204.9c-19.36 0-35.35 14.59-37.58 33.35zm-54.83 311.23l1.73-11.26H80.63v11.26h31.86zm-27.35 38.83v-9.57h-29.6v9.57h29.6zm46.98 28.73h190.05v9H132.12zm3-24.9h184.05v9H135.12zm2.82-23.38h178.41v9H137.94zm2.65-21.99H313.7v9H140.59zm50.37-329.7h72.37v9h-72.37zm-78.9 221.91c9.59 0 17.39 7.81 17.39 17.39 0 9.59-7.8 17.4-17.39 17.4s-17.39-7.81-17.39-17.4c0-9.58 7.8-17.39 17.39-17.39zm8.39 17.39c0-4.62-3.76-8.39-8.39-8.39s-8.39 3.77-8.39 8.39c0 4.63 3.76 8.4 8.39 8.4s8.39-3.77 8.39-8.4zm-50.63-17.39c9.59 0 17.39 7.81 17.39 17.39 0 9.59-7.8 17.4-17.39 17.4s-17.39-7.81-17.39-17.4c0-9.58 7.8-17.39 17.39-17.39zm8.39 17.39c0-4.62-3.76-8.39-8.39-8.39a8.41 8.41 0 0 0-8.39 8.39c0 4.63 3.77 8.4 8.39 8.4 4.63 0 8.39-3.77 8.39-8.4z"/></svg>