<svg xmlns="http://www.w3.org/2000/svg" width="256" height="256" style="shape-rendering:geometricPrecision;text-rendering:geometricPrecision;image-rendering:optimizeQuality;fill-rule:evenodd;clip-rule:evenodd"><path style="opacity:.921" fill="#050504" d="M44.5-.5h145c.996 1.165 2.329 1.832 4 2a208.467 208.467 0 0 0 13-2h8c18.675 2.157 30.508 12.49 35.5 31a295.288 295.288 0 0 1 5.5 27v24c-2.552 13.124-7.386 25.457-14.5 37-4.617 5.722-10.45 9.556-17.5 11.5l-33 1c1.578 11.883 1.078 23.716-1.5 35.5a2699.027 2699.027 0 0 1-52 84 81.338 81.338 0 0 1-5.5 5h-7c-2.972-2.141-5.472-4.808-7.5-8a4768.678 4768.678 0 0 0-52-77c-2.563-5.022-3.896-10.355-4-16-.5-7.993-.666-15.993-.5-24-9.05 1.02-18.05.854-27-.5-12.873-3.203-21.707-11.036-26.5-23.5-3.475-10.234-5.975-20.567-7.5-31v-23c1.915-14.235 7.081-27.235 15.5-39C23.306 5.462 33.139.795 44.5-.5zm114 154c6.652 1.771 7.985 5.271 4 10.5-5.833.833-8.333-1.667-7.5-7.5a30.233 30.233 0 0 1 3.5-3z"/><path style="opacity:1" fill="#3a78a9" d="M42.5 5.5h145a236.357 236.357 0 0 1-1.5 36c-4.095 10.428-11.595 16.928-22.5 19.5l-71 1C76.525 65.31 66.358 74.81 62 90.5a578.416 578.416 0 0 0-.5 34c-9.34.166-18.673 0-28-.5-10.573-3.555-17.74-10.721-21.5-21.5-8.089-23.258-8.422-46.592-1-70 5.521-15.035 16.021-24.035 31.5-27z"/><path style="opacity:1" fill="#fddc56" d="M176.5 124.5h-51c-.302 2.559.032 4.893 1 7 4.956 1.328 10.289 1.995 16 2a1135.54 1135.54 0 0 1 43-1c.181 10.367-.319 20.7-1.5 31a1198.345 1198.345 0 0 1-54.5 85.5c-1.444.781-2.777.614-4-.5a5654.264 5654.264 0 0 1-56.5-84l-2-6c-.667-21-.667-42 0-63C70.065 82.102 78.231 73.602 91.5 70l70-1c16.731-3.73 27.231-13.897 31.5-30.5l1-31c25.867-7.238 42.867 1.762 51 27 8.789 28.95 5.456 56.283-10 82a46.447 46.447 0 0 1-9.5 6.5 425.87 425.87 0 0 1-49 1.5zm-18 29a30.233 30.233 0 0 0-3.5 3c-.833 5.833 1.667 8.333 7.5 7.5 3.985-5.229 2.652-8.729-4-10.5z"/><path style="opacity:1" fill="#7d722c" d="M176.5 124.5a625.298 625.298 0 0 1-50 1v6c-.968-2.107-1.302-4.441-1-7h51z"/><path style="opacity:.916" fill="#0c0a04" d="M155.5 147.5c11.219-.284 16.386 5.05 15.5 16-5.591 8.066-12.258 9.066-20 3-4.402-7.856-2.902-14.19 4.5-19zm3 6a30.233 30.233 0 0 0-3.5 3c-.833 5.833 1.667 8.333 7.5 7.5 3.985-5.229 2.652-8.729-4-10.5z"/></svg>