<svg xmlns="http://www.w3.org/2000/svg" width="453.333" height="453.333" viewBox="0 0 340 340" preserveAspectRatio="xMidYMid meet" xmlns:v="https://vecta.io/nano"><path d="M52.308 106.659h238.654v203.918H52.308z" fill="#fff"/><path d="M148.5 13.3L81 57.4 20.3 96.9 7 105.5v115.2V336h162 162V220.7 105.5l-24.7-16c-13.6-8.8-25.6-16.8-26.5-17.8-1.6-1.5-1.8-4.2-1.8-27.2V19h-29-29v5.9c0 3.8-.4 6.1-1.2 6.4-.7.2-12.2-6.7-25.6-15.4L168.7.1c-.1 0-9.2 6-20.2 13.2zm116.7 107.8c1.3.5 3.3 2.5 4.6 4.3 2 2.9 2.2 4.4 2.2 16 0 13.9-.8 16.9-5.7 20.2-2.7 1.8-6.3 1.9-95.4 2.2-72.8.2-93.4 0-96.5-1-2.4-.8-4.7-2.6-6.1-4.7-2.1-3.1-2.3-4.5-2.3-16.9v-13.4l3.9-3.9 3.9-3.9h94.5l96.9 1.1zm-.1 50.4c5.7 3 6.9 6.5 6.9 20.3 0 13.9-.9 16.7-6.3 20.1-3.4 2.1-3.7 2.1-96.8 2.1-90.8 0-93.5-.1-96.6-2-1.8-1-3.8-2.9-4.6-4.2-1.9-2.9-3.1-23-1.7-27.7 1.1-3.8 4.4-7.9 7.5-9.1 1.1-.5 44-.9 95.3-.9 82.4-.1 93.7.1 96.3 1.4zm.9 51.1c5.2 3.1 6 5.9 6 20.3v13l-3.1 3.5c-1.7 2-4.7 4-6.7 4.6-2.3.6-20.2 1-45.4 1H175v5.7c0 4.4.5 6.2 2.2 8 2.1 2.2 2.6 2.3 20.5 2.3 18.4 0 18.4 0 20.9 2.6 2 1.9 2.4 3.1 1.9 5.2-1.1 4.9-2.5 5.2-22.4 5.2h-18.5l-2.9 2.7c-4.1 4-11.3 4-15.4.1l-2.9-2.8h-18.7c-17.9 0-18.7-.1-20.7-2.2-2.7-2.9-2.5-5.4.5-8.3 2.4-2.5 2.6-2.5 20.6-2.5 17.4 0 18.4-.1 20.6-2.2 1.9-1.8 2.3-3.2 2.3-7.9v-5.8l-43.7-.3c-48.4-.3-48.5-.3-51.8-6.8-2.1-4.1-2.1-26.9 0-31 3.2-6.2-2-5.9 101.3-6 85.6 0 94.6.2 97.2 1.6zM94.7 283.2c2.8 2.7 2.9 5.7.3 8.6-2.6 2.8-6.7 2.8-9.7 0-2.9-2.7-2.9-5.5-.1-8.5 2.7-2.9 6.5-2.9 9.5-.1zm17 0c2.9 2.7 2.9 5.5.1 8.5-2.7 2.9-7.1 3-9.8.1-2.6-2.8-2.5-5.6.2-8.5s6.5-2.9 9.5-.1zm124 0c2.8 2.7 2.9 5.7.3 8.6-2.6 2.8-6.7 2.8-9.7 0-2.9-2.7-2.9-5.5-.1-8.5 2.7-2.9 6.5-2.9 9.5-.1zm17 0c2.9 2.7 2.9 5.5.1 8.5-2.7 2.9-7.1 3-9.8.1-2.6-2.8-2.5-5.6.2-8.5s6.5-2.9 9.5-.1zM83.1 135.4c-.7.9-1.1 3.8-.9 7.3l.3 5.8 26.4.3c20.5.2 26.6-.1 27.3-1 1.2-2 .9-11.3-.4-12.6-1.9-1.9-51.1-1.7-52.7.2zm-.7 51c-.3.7-.4 3.8-.2 6.7l.3 5.4h27 27V192v-6.5l-26.8-.3c-22.1-.2-26.8 0-27.3 1.2zm134.8 50.9c-4.8 5.1-1.2 12.7 5.9 12.7 7 0 10.5-8.2 5.6-12.8-3.2-3-8.7-2.9-11.5.1zm25 0c-4.8 5.1-1.2 12.7 5.9 12.7 7 0 10.5-8.2 5.6-12.8-3.2-3-8.7-2.9-11.5.1z"/></svg>